<svg id="Capa_1" enable-background="new 0 0 512 512" height="512" viewBox="0 0 512 512" width="512" xmlns="http://www.w3.org/2000/svg"><g><path d="m287.494 305 223.506 121.065v-242.131z"/><path d="m1 435c0 8.284 6.716 15 15 15h191.827l35.569 55.132c5.908 9.158 19.301 9.158 25.209 0l35.568-55.132h188.025l-491.198-266.066z"/><path d="m451 126.972v55.343l45.801-24.809z"/><path d="m264.32 2.519c-5.039-3.359-11.602-3.359-16.641 0l-56.22 37.481h129.082z"/><path d="m61 126.972-45.801 30.534 45.801 24.809z"/><path d="m421 198.566v-113.566c0-8.284-6.716-15-15-15h-300c-8.284 0-15 6.716-15 15v113.566l165 89.375z"/></g></svg>